<?xml version="1.0" encoding="UTF-8" standalone="no"?>
<!DOCTYPE svg PUBLIC "-//W3C//DTD SVG 1.1//EN" "http://www.w3.org/Graphics/SVG/1.1/DTD/svg11.dtd">
<svg width="100%" height="100%" viewBox="0 0 1260 1260" version="1.1" xmlns="http://www.w3.org/2000/svg" xmlns:xlink="http://www.w3.org/1999/xlink" xml:space="preserve" xmlns:serif="http://www.serif.com/" style="fill-rule:evenodd;clip-rule:evenodd;stroke-linecap:round;stroke-linejoin:round;stroke-miterlimit:1.5;">
    <g transform="matrix(1,0,0,1,-418.737,-5536.21)">
        <g transform="matrix(1,0,0,1,-656.472,-2842)">
            <rect x="1095" y="8398" width="1220" height="1220" style="fill:rgb(244,151,108);stroke:rgb(48,60,108);stroke-width:39.58px;"/>
        </g>
        <g transform="matrix(1.44276,0,0,1,338.692,-2081)">
            <rect x="212" y="7882.03" width="560" height="78.968" style="fill:white;"/>
        </g>
        <g transform="matrix(1.12133,0,0,1,406.835,-1920)">
            <rect x="212" y="7882.03" width="560" height="78.968" style="fill:white;"/>
        </g>
        <g transform="matrix(1.24097,0,0,1,381.471,-1761.03)">
            <rect x="212" y="7882.03" width="560" height="78.968" style="fill:white;"/>
        </g>
        <g transform="matrix(1.44276,0,0,1,338.692,-1587.03)">
            <rect x="212" y="7882.03" width="560" height="78.968" style="fill:white;"/>
        </g>
        <g transform="matrix(1.44276,0,0,1,338.692,-1430.03)">
            <rect x="212" y="7882.03" width="560" height="78.968" style="fill:white;"/>
        </g>
    </g>
</svg>
