<?xml version="1.0" encoding="UTF-8" standalone="no"?>
<!DOCTYPE svg PUBLIC "-//W3C//DTD SVG 1.1//EN" "http://www.w3.org/Graphics/SVG/1.1/DTD/svg11.dtd">
<svg width="100%" height="100%" viewBox="0 0 7052 2963" version="1.1" xmlns="http://www.w3.org/2000/svg" xmlns:xlink="http://www.w3.org/1999/xlink" xml:space="preserve" xmlns:serif="http://www.serif.com/" style="fill-rule:evenodd;clip-rule:evenodd;stroke-linejoin:round;stroke-miterlimit:2;">
    <g transform="matrix(1,0,0,1,35.4331,-6970.49)">
        <g transform="matrix(-0.598201,0,0,0.598201,3805.61,5114.56)">
            <path d="M6421,4106C6421,4106 5175.38,4257.63 4839.31,4966.53C4498.32,5685.83 4779.8,6642 3015,6642C1621.15,6642 1085,8055 1085,8055L6421,8055L6421,4106Z" style="fill:rgb(0,67,162);"/>
            <g transform="matrix(0.809332,0,0,0.782088,1224.28,1755.28)">
                <path d="M6421,4106C6421,4106 5175.38,4257.63 4839.31,4966.53C4498.32,5685.83 4779.8,6642 3015,6642C1621.15,6642 1085,8055 1085,8055L6421,8055L6421,4106Z" style="fill:rgb(15,117,255);"/>
            </g>
            <g transform="matrix(0.559783,0,0,0.626859,2826.64,3005.65)">
                <path d="M6421,4106C6421,4106 5175.38,4257.63 4839.31,4966.53C4498.32,5685.83 4779.8,6642 3015,6642C1621.15,6642 1085,8055 1085,8055L6421,8055L6421,4106Z" style="fill:rgb(0,36,84);"/>
            </g>
        </g>
        <g transform="matrix(-0.750211,0,0,0.750211,8594.62,3616.81)">
            <g>
                <g transform="matrix(-1,0,0,1,8525.57,364.314)">
                    <path d="M6421,4106C6421,4106 5175.38,4257.63 4839.31,4966.53C4498.32,5685.83 4779.8,6642 3015,6642C1621.15,6642 1085,8055 1085,8055L6421,8055L6421,4106Z" style="fill:rgb(0,67,162);"/>
                </g>
                <g transform="matrix(-0.809332,0,0,0.782088,7301.28,2119.6)">
                    <path d="M6421,4106C6421,4106 5175.38,4257.63 4839.31,4966.53C4498.32,5685.83 4779.8,6642 3015,6642C1621.15,6642 1085,8055 1085,8055L6421,8055L6421,4106Z" style="fill:rgb(15,117,255);"/>
                </g>
            </g>
            <g transform="matrix(-0.559783,0,0,0.626859,5698.93,3369.97)">
                <path d="M6421,4106C6421,4106 5175.38,4257.63 4839.31,4966.53C4498.32,5685.83 4779.8,6642 3015,6642C1621.15,6642 1085,8055 1085,8055L6421,8055L6421,4106Z" style="fill:rgb(0,36,84);"/>
            </g>
        </g>
    </g>
</svg>
